<?xml version="1.0" encoding="utf-8"?><svg viewBox="0 0 93 81" xmlns="http://www.w3.org/2000/svg" xmlns:xlink="http://www.w3.org/1999/xlink"><style>:root>svg{display:none}:root>svg:target{display:block}</style><svg fill="none" viewBox="0 0 27 27" id="arrow" xmlns="http://www.w3.org/2000/svg"><circle cx="13.5" cy="13.5" r="13" stroke="#F61067" stroke-opacity=".5"/><path d="M17.791 13.854a.5.5 0 000-.708L14.61 9.964a.5.5 0 10-.707.708L16.73 13.5l-2.828 2.828a.5.5 0 10.707.707l3.182-3.181zM9.562 14h7.876v-1H9.563v1z" fill="#F61067"/></svg><svg fill="none" viewBox="0 0 27 16" id="burger" xmlns="http://www.w3.org/2000/svg"><path fill="#FCFCFC" d="M0 0h27v2H0zM0 7h27v2H0zM9 14h18v2H9z"/></svg><svg fill="none" viewBox="0 0 18 18" id="facebook" xmlns="http://www.w3.org/2000/svg"><path opacity=".9" d="M18 .992v16.012c0 .55-.446.992-.992.992h-4.589v-6.967h2.339l.35-2.716h-2.693V6.577c0-.787.217-1.322 1.346-1.322H15.2v-2.43c-.25-.033-1.101-.109-2.098-.109-2.073 0-3.495 1.266-3.495 3.592v2.005H7.26v2.716h2.347V18H.992A.995.995 0 010 17.008V.992C0 .446.446 0 .992 0h16.012c.55 0 .996.446.996.992z" fill="#FCFCFC"/></svg><svg fill="none" viewBox="0 0 18 18" id="instagram" xmlns="http://www.w3.org/2000/svg"><path opacity=".9" d="M9.002 4.384a4.607 4.607 0 00-4.614 4.614 4.607 4.607 0 004.614 4.614 4.607 4.607 0 004.614-4.614 4.607 4.607 0 00-4.614-4.614zm0 7.614c-1.65 0-3-1.346-3-3s1.346-3 3-3 3 1.346 3 3-1.35 3-3 3zm5.879-7.803c0 .599-.482 1.076-1.076 1.076a1.076 1.076 0 111.076-1.076zm3.056 1.093c-.069-1.442-.398-2.719-1.454-3.771C15.431.465 14.154.136 12.713.063c-1.486-.084-5.94-.084-7.425 0-1.438.069-2.715.398-3.771 1.45S.136 3.842.063 5.283c-.084 1.486-.084 5.94 0 7.425.069 1.442.398 2.719 1.454 3.771s2.329 1.381 3.77 1.454c1.486.084 5.94.084 7.425 0 1.442-.069 2.719-.398 3.771-1.454 1.052-1.052 1.381-2.329 1.454-3.77.084-1.486.084-5.936 0-7.421zm-1.92 9.015a3.037 3.037 0 01-1.71 1.71c-1.185.47-3.996.362-5.305.362-1.31 0-4.124.104-5.305-.362a3.037 3.037 0 01-1.71-1.71c-.47-1.185-.362-3.996-.362-5.305 0-1.31-.104-4.124.362-5.305a3.037 3.037 0 011.71-1.71c1.185-.47 3.996-.362 5.305-.362 1.31 0 4.124-.104 5.305.362.787.313 1.393.92 1.71 1.71.47 1.185.362 3.996.362 5.305 0 1.31.108 4.124-.362 5.305z" fill="#FCFCFC"/></svg><svg fill="none" viewBox="0 0 48 48" id="link" xmlns="http://www.w3.org/2000/svg"><circle cx="24" cy="24" r="24" fill="#C4C4C4" fill-opacity=".05"/><circle cx="24" cy="24" r="23.5" stroke="#fff" stroke-opacity=".5"/><path d="M31.354 24.354a.5.5 0 000-.708l-3.182-3.181a.5.5 0 10-.707.707L30.293 24l-2.828 2.828a.5.5 0 10.707.707l3.182-3.181zM17 24.5h14v-1H17v1z" fill="#FCFCFC"/></svg><svg fill="none" viewBox="0 0 18 15" id="m" xmlns="http://www.w3.org/2000/svg"><path opacity=".9" d="M2.132 2.914a.703.703 0 00-.227-.588L.227.3V0h5.217l4.034 8.846L13.025 0H18v.301l-1.436 1.377a.419.419 0 00-.16.402v10.122a.419.419 0 00.16.402l1.402 1.377v.301h-7.059v-.301l1.455-1.41c.142-.142.142-.187.142-.402v-8.18L8.459 14.256h-.547L3.208 3.99v6.881c-.041.29.056.58.26.789l1.89 2.292v.302H0v-.298l1.89-2.296a.907.907 0 00.242-.789V2.914z" fill="#FCFCFC"/></svg><svg fill="none" viewBox="0 0 18 29" id="phone" xmlns="http://www.w3.org/2000/svg"><path d="M12.6 5.4v13.5H5.4V5.4h7.2zM15.3 0H2.7A2.7 2.7 0 000 2.7v23.4a2.7 2.7 0 002.7 2.7h12.6a2.7 2.7 0 002.7-2.7V2.7A2.7 2.7 0 0015.3 0zM2.7 27a.903.903 0 01-.9-.9V2.7c0-.495.405-.9.9-.9h12.6c.495 0 .9.405.9.9v23.4c0 .495-.405.9-.9.9H2.7zM13.725 3.6h-9.45a.677.677 0 00-.675.675v15.75c0 .371.304.675.675.675h9.45a.677.677 0 00.675-.675V4.275a.677.677 0 00-.675-.675zm-2.7 19.8h-4.05a.677.677 0 00-.675.675v.45c0 .371.304.675.675.675h4.05a.677.677 0 00.675-.675v-.45a.677.677 0 00-.675-.675z" fill="#FCFCFC"/></svg><svg fill="none" viewBox="0 0 93 81" id="quotes" xmlns="http://www.w3.org/2000/svg"><path d="M38.547 57.86c-.469 3-1.219 5.859-2.25 8.578-1.031 2.624-2.297 4.968-3.797 7.03-1.5 2.063-3.14 3.704-4.922 4.923-1.687 1.125-3.422 1.687-5.203 1.687-3.375 0-6.844-.516-10.406-1.547C8.5 77.5 5.78 75.766 3.813 73.328a27.576 27.576 0 01-1.688-2.953c-.563-1.125-.984-2.484-1.266-4.078C.58 64.703.391 62.78.297 60.53c0-2.25.234-4.875.703-7.875a78.062 78.062 0 012.672-12.515c1.219-4.032 3.094-8.157 5.625-12.375 2.625-4.22 6.047-8.532 10.265-12.938C23.875 10.328 29.36 5.5 36.017.344l7.312 10.265c-8.25 6.188-14.156 11.672-17.719 16.453-3.468 4.688-5.437 8.813-5.906 12.375-.187 1.688.328 3 1.547 3.938 1.219.938 2.813 1.688 4.781 2.25 4.125 1.031 7.313 2.672 9.563 4.922 2.343 2.156 3.328 4.594 2.953 7.312zm49.219 0c-.47 3-1.22 5.859-2.25 8.578-1.032 2.624-2.297 4.968-3.797 7.03-1.5 2.063-3.14 3.704-4.922 4.923-1.688 1.125-3.422 1.687-5.203 1.687-3.375 0-6.844-.516-10.406-1.547-3.47-1.031-6.188-2.765-8.157-5.203a27.576 27.576 0 01-1.687-2.953c-.563-1.125-.985-2.484-1.266-4.078-.281-1.594-.469-3.516-.562-5.766 0-2.25.234-4.875.703-7.875a78.058 78.058 0 012.672-12.515c1.218-4.032 3.093-8.157 5.625-12.375 2.625-4.22 6.047-8.532 10.265-12.938 4.313-4.5 9.797-9.328 16.453-14.484l7.313 10.265c-8.25 6.188-14.156 11.672-17.719 16.453-3.469 4.688-5.437 8.813-5.906 12.375-.188 1.688.328 3 1.547 3.938 1.219.938 2.812 1.688 4.781 2.25 4.125 1.031 7.313 2.672 9.563 4.922 2.343 2.156 3.328 4.594 2.953 7.312z" fill="#F61067"/></svg><svg fill="none" viewBox="0 0 54 54" id="service-1" xmlns="http://www.w3.org/2000/svg"><circle cx="27" cy="27" r="27" fill="#F61067" fill-opacity=".02"/><circle cx="27" cy="27" r="26.5" stroke="#F61067" stroke-opacity=".5"/><path d="M27.375 24.79a2.534 2.534 0 00-2.532 2.531 2.534 2.534 0 002.532 2.532 2.534 2.534 0 002.532-2.532 2.534 2.534 0 00-2.532-2.53zm0 3.616a1.085 1.085 0 110-2.17 1.085 1.085 0 010 2.17zm8.53-1.085c.703-.916 1.207-1.836 1.443-2.712.272-1.022.178-1.962-.274-2.72-.824-1.379-2.729-1.942-5.131-1.737-1.051-2.693-2.69-4.402-4.568-4.402-1.878 0-3.517 1.709-4.567 4.401-2.404-.205-4.307.359-5.13 1.738-.454.758-.548 1.698-.276 2.72.235.876.74 1.796 1.443 2.712-.703.917-1.208 1.836-1.443 2.712-.272 1.022-.178 1.963.274 2.721.717 1.198 2.242 1.786 4.206 1.786.288 0 .61-.052.915-.077 1.05 2.709 2.694 4.43 4.578 4.43 1.884 0 3.527-1.721 4.577-4.43.305.025.628.077.916.077 1.962 0 3.49-.588 4.204-1.786.454-.758.549-1.699.276-2.72-.236-.877-.74-1.796-1.443-2.713zm-17.104-3.086c-.174-.644-.133-1.184.119-1.604.416-.7 1.479-1.084 2.944-1.084.15 0 .313.012.472.02-.25.891-.442 1.86-.568 2.887a17.939 17.939 0 00-1.958 1.738c-.485-.673-.843-1.337-1.01-1.957zm2.808 3.933a14.98 14.98 0 01-.865-.847c.267-.284.555-.566.865-.846-.01.28-.02.56-.02.846 0 .287.01.566.02.847zm-2.69 3.844c-.25-.42-.292-.96-.118-1.604.167-.62.525-1.284 1.009-1.957a17.985 17.985 0 001.958 1.738c.126 1.027.317 1.997.568 2.89-1.705.088-2.956-.295-3.418-1.067zm12.42-8.71c-.379-.241-.764-.479-1.167-.703a23.52 23.52 0 00-.872-.459 15.254 15.254 0 011.653-.398c.154.513.283 1.034.386 1.56zm-3.964-6.106c1.088 0 2.238 1.177 3.083 3.163a18.35 18.35 0 00-3.083.92 18.363 18.363 0 00-3.083-.92c.845-1.987 1.995-3.163 3.083-3.163zm-3.579 4.546c.527.096 1.078.225 1.653.398-.29.146-.58.296-.871.459-.403.224-.788.462-1.167.702.103-.525.231-1.046.385-1.559zm-.385 9.6c.379.24.764.477 1.167.702.304.17.605.293.908.446a15.43 15.43 0 01-1.69.412 16.444 16.444 0 01-.385-1.56zm3.964 6.104c-1.092 0-2.247-1.185-3.093-3.185a18.226 18.226 0 003.093-.919c1.069.418 2.106.725 3.093.919-.846 2-2.001 3.185-3.093 3.185zm3.578-4.544c-.536-.098-1.1-.235-1.688-.412.303-.153.604-.276.907-.446.404-.224.789-.461 1.168-.702-.109.552-.24 1.07-.387 1.56zm.665-3.498c-.668.484-1.383.95-2.15 1.378a21.46 21.46 0 01-2.092 1.021 21.552 21.552 0 01-2.095-1.021 21.457 21.457 0 01-2.149-1.378 22.148 22.148 0 010-4.165 21.351 21.351 0 014.242-2.403 21.43 21.43 0 014.243 2.403 22.282 22.282 0 010 4.165zm1.268-7.858c1.465 0 2.528.385 2.946 1.084.25.42.291.96.117 1.605-.166.62-.524 1.283-1.008 1.957a17.965 17.965 0 00-1.959-1.738 19.5 19.5 0 00-.568-2.888c.159-.008.322-.02.472-.02zm.255 4.929c.31.28.597.562.864.846-.267.285-.555.567-.864.847.01-.28.02-.56.02-.847 0-.286-.01-.566-.02-.846zm2.69 5.537c-.46.772-1.712 1.155-3.418 1.066.252-.893.443-1.862.57-2.89a17.939 17.939 0 001.957-1.737c.484.673.843 1.337 1.009 1.957.174.644.133 1.184-.119 1.604z" fill="#F61067"/></svg><svg fill="none" viewBox="0 0 18 15" id="twitter" xmlns="http://www.w3.org/2000/svg"><path opacity=".9" d="M16.15 3.643c.011.16.011.32.011.48C16.161 9 12.45 14.62 5.665 14.62c-2.09 0-4.032-.605-5.665-1.656.297.035.582.046.89.046a7.389 7.389 0 004.58-1.576 3.696 3.696 0 01-3.448-2.559c.228.035.456.057.696.057.332 0 .663-.045.971-.125a3.69 3.69 0 01-2.958-3.62V5.14a3.715 3.715 0 001.667.468A3.687 3.687 0 01.754 2.536c0-.686.182-1.314.502-1.862a10.486 10.486 0 007.607 3.86 4.164 4.164 0 01-.091-.845A3.687 3.687 0 0112.46 0a3.68 3.68 0 012.695 1.165 7.264 7.264 0 002.341-.89 3.68 3.68 0 01-1.621 2.032A7.396 7.396 0 0018 1.737a7.932 7.932 0 01-1.85 1.906z" fill="#FCFCFC"/></svg><svg fill="none" viewBox="0 0 26 18" id="youtube" xmlns="http://www.w3.org/2000/svg"><path opacity=".9" d="M25.065 2.816A3.217 3.217 0 0022.802.538C20.805 0 12.8 0 12.8 0S4.795 0 2.798.538A3.217 3.217 0 00.535 2.816C0 4.826 0 9.018 0 9.018s0 4.193.535 6.202c.294 1.109 1.162 1.945 2.263 2.242C4.795 18 12.8 18 12.8 18s8.005 0 10.002-.538c1.101-.297 1.969-1.133 2.263-2.242.535-2.01.535-6.202.535-6.202s0-4.192-.535-6.202zM10.182 12.825V5.212l6.69 3.806-6.69 3.807z" fill="#FCFCFC"/></svg></svg>